<?xml version="1.0" encoding="UTF-8"?>
<svg version="1.1" xmlns="http://www.w3.org/2000/svg" width="128" height="128">
<path d="M0 0 C14.66593153 10.19568513 25.60840641 23.74932626 29.74780273 41.46484375 C31.86603529 54.29763126 31.44584138 68.79991362 26.125 80.75 C25.76277344 81.62269531 25.40054688 82.49539062 25.02734375 83.39453125 C17.33536706 100.36902897 3.07751411 111.05081733 -13.734375 117.91796875 C-30.02500275 122.93228047 -49.3872321 120.84818754 -64.375 113.25 C-80.79373216 104.34772371 -91.48385123 89.95575147 -96.98828125 72.1484375 C-100.09059644 59.05712927 -99.35177869 43.05030624 -93.875 30.75 C-93.51277344 29.87730469 -93.15054688 29.00460938 -92.77734375 28.10546875 C-85.8549626 12.82929883 -73.23462165 1.78063924 -57.87109375 -4.47265625 C-38.93392049 -11.50790437 -17.48941603 -10.43527048 0 0 Z " fill="#010101" transform="translate(97.875,8.25)"/>
<path d="M0 0 C2.63560713 3.27178817 3 4.72068147 3 9 C4.7015625 9.2165625 4.7015625 9.2165625 6.4375 9.4375 C10 10 10 10 11 11 C11.54327898 19.98008198 10.68486863 29.04778865 10 38 C10.53109375 36.92878906 11.0621875 35.85757813 11.609375 34.75390625 C12.32219556 33.35640279 13.03577698 31.95928723 13.75 30.5625 C14.09804687 29.85544922 14.44609375 29.14839844 14.8046875 28.41992188 C17.49772734 23.20839107 17.49772734 23.20839107 19.93066406 22.19897461 C23.14641924 21.88976738 25.26286645 23.44481048 28 25 C27.46749875 29.50597096 26.34281147 32.60739018 24.0234375 36.4921875 C14.85966201 51.8921351 14.85966201 51.8921351 14.51953125 69.18359375 C14.67808594 70.11300781 14.83664063 71.04242188 15 72 C12.50494038 74.49505962 11.32671112 74.35948376 7.875 74.625 C6.50988281 74.73714844 6.50988281 74.73714844 5.1171875 74.8515625 C4.41851562 74.90054688 3.71984375 74.94953125 3 75 C2.87625 76.11375 2.7525 77.2275 2.625 78.375 C2 82 2 82 0 84 C-3.01953125 84.01171875 -3.01953125 84.01171875 -6.8125 83.6875 C-7.48031494 83.63553467 -8.14812988 83.58356934 -8.83618164 83.5300293 C-12.09638774 83.27259382 -15.34795857 82.96452483 -18.6015625 82.6328125 C-25.06446746 82.01225254 -29.78372535 82.22392153 -36 84 C-38.875 83.875 -38.875 83.875 -41 83 C-41.39058594 82.01773438 -41.39058594 82.01773438 -41.7890625 81.015625 C-42.85134962 78.73490947 -42.85134962 78.73490947 -45.53125 78.2421875 C-46.5109375 78.12101562 -47.490625 77.99984375 -48.5 77.875 C-53.80966767 77.19033233 -53.80966767 77.19033233 -56 75 C-55.828125 71.97265625 -55.828125 71.97265625 -55.25 68.0625 C-55.0492846 66.61218551 -54.85013256 65.16165401 -54.65234375 63.7109375 C-54.54519043 62.94491211 -54.43803711 62.17888672 -54.32763672 61.38964844 C-52.41699849 47.45423343 -51.59884337 35.21831773 -54.58984375 21.37109375 C-55.19590488 17.86748323 -55.13138997 14.54752906 -55 11 C-49.25 9 -49.25 9 -47 9 C-46.855625 8.195625 -46.71125 7.39125 -46.5625 6.5625 C-46 4 -46 4 -45 3 C-43.32108463 2.94900932 -41.64007249 2.96465516 -39.9609375 3.0078125 C-28.96013065 3.20383302 -18.60237549 3.34664315 -7.890625 0.65625 C-5.10711511 0.02431802 -2.8374359 -0.29920238 0 0 Z " fill="#EFEEF9" transform="translate(78,22)"/>
<path d="M0 0 C0.66 0 1.32 0 2 0 C3.16778076 5.06975695 4.32515256 10.14173463 5.47290039 15.21606445 C5.86489527 16.94230277 6.25973745 18.66789706 6.6574707 20.39282227 C7.22835328 22.87092304 7.78898888 25.35115205 8.34765625 27.83203125 C8.52780777 28.60400345 8.70795929 29.37597565 8.89356995 30.17134094 C10.11387171 35.65838488 10.11387171 35.65838488 9 39 C7.20676747 38.71812064 5.41542874 38.4241719 3.625 38.125 C2.62726562 37.96257812 1.62953125 37.80015625 0.6015625 37.6328125 C-2 37 -2 37 -4 35 C-3.828125 31.97265625 -3.828125 31.97265625 -3.25 28.0625 C-3.04749008 26.6265812 -2.84706322 25.19036749 -2.6484375 23.75390625 C-2.54112305 22.98965332 -2.43380859 22.22540039 -2.32324219 21.43798828 C-1.75271272 17.13488615 -1.31727101 12.81785433 -0.875 8.5 C-0.78766602 7.65703369 -0.70033203 6.81406738 -0.61035156 5.94555664 C-0.4054542 3.96385349 -0.20250351 1.9819492 0 0 Z " fill="#D9DAF6" transform="translate(26,62)"/>
<path d="M0 0 C3.73487777 0.4979837 5.81237635 0.87491756 9 3 C8.11492892 9.93584407 5.14602293 15.3947327 2 21.5625 C1.45988281 22.68591797 0.91976562 23.80933594 0.36328125 24.96679688 C-3.25862075 32.07129695 -6.44626494 36.1213161 -14 39 C-14.1484375 36.61328125 -14.1484375 36.61328125 -14 34 C-11.6167054 32.18116991 -10.04181663 31 -7 31 C-6.91878906 30.34644531 -6.83757812 29.69289063 -6.75390625 29.01953125 C-5.73019907 24.91939836 -3.87261014 21.42737607 -1.9375 17.6875 C-1.56044922 16.94693359 -1.18339844 16.20636719 -0.79492188 15.44335938 C0.13128157 13.62612478 1.06490629 11.81267596 2 10 C-0.475 9.01 -0.475 9.01 -3 8 C-2.45276317 4.62537285 -1.9451 2.91765 0 0 Z " fill="#487BF5" transform="translate(97,44)"/>
<path d="M0 0 C1.98 1.32 3.96 2.64 6 4 C5.38367054 8.95998472 3.20164371 12.93671966 0.9375 17.3125 C0.37192383 18.42334961 0.37192383 18.42334961 -0.20507812 19.55664062 C-1.13128157 21.37387522 -2.06490629 23.18732404 -3 25 C-5.31 24.01 -7.62 23.02 -10 22 C-8.50395914 17.01319714 -6.37817847 12.60237416 -4 8 C-3.24795432 6.50102459 -2.49787761 5.00105932 -1.75 3.5 C-0.88375 1.7675 -0.88375 1.7675 0 0 Z " fill="#59AFF6" transform="translate(93,50)"/>
<path d="M0 0 C0 0.99 0 1.98 0 3 C-4.87804878 7.87804878 -4.87804878 7.87804878 -8.875 8.3125 C-9.926875 8.1578125 -9.926875 8.1578125 -11 8 C-10.67 10.31 -10.34 12.62 -10 15 C-10.99 14.67 -11.98 14.34 -13 14 C-13 13.01 -13 12.02 -13 11 C-14.051875 10.87625 -15.10375 10.7525 -16.1875 10.625 C-19.45958771 10.08859218 -22.00536076 9.36119965 -25 8 C-24.34 6.68 -23.68 5.36 -23 4 C-16.9453125 3.8046875 -16.9453125 3.8046875 -15 4 C-14.34 4.66 -13.68 5.32 -13 6 C-12.566875 5.21625 -12.13375 4.4325 -11.6875 3.625 C-8.32189675 -1.61038283 -5.67737841 -1.07120347 0 0 Z " fill="#6AB154" transform="translate(65,34)"/>
<path d="M0 0 C6.875 0.875 6.875 0.875 8 2 C8.66160759 10.78553329 7.4329521 19.35111056 6 28 C5.67 28 5.34 28 5 28 C4.16197087 23.8967776 3.33038122 19.79227638 2.5 15.6875 C2.14228516 13.93663086 2.14228516 13.93663086 1.77734375 12.15039062 C1.55175781 11.03212891 1.32617188 9.91386719 1.09375 8.76171875 C0.88427734 7.73006592 0.67480469 6.69841309 0.45898438 5.63549805 C0 3 0 3 0 0 Z " fill="#D2D2EE" transform="translate(81,31)"/>
<path d="M0 0 C-1.875 6.875 -1.875 6.875 -3 8 C-10.8232016 7.87175079 -18.49665754 7.29694157 -26 5 C-26 4.67 -26 4.34 -26 4 C-22.79363027 3.32364936 -19.58463311 2.66067552 -16.375 2 C-15.47136719 1.80921875 -14.56773438 1.6184375 -13.63671875 1.421875 C-9.01796444 0.47789602 -4.74352828 -0.25214768 0 0 Z " fill="#C8C7E6" transform="translate(81,98)"/>
<path d="M0 0 C3.73487777 0.4979837 5.81237635 0.87491756 9 3 C8.5020163 6.73487777 8.12508244 8.81237635 6 12 C2.51460083 11.35455571 -0.02819057 9.89865603 -3 8 C-2.45276317 4.62537285 -1.9451 2.91765 0 0 Z " fill="#E54F6A" transform="translate(97,44)"/>
<path d="M0 0 C0.66 0 1.32 0 2 0 C3.16778076 5.06975695 4.32515256 10.14173463 5.47290039 15.21606445 C5.86489527 16.94230277 6.25973745 18.66789706 6.6574707 20.39282227 C7.22835328 22.87092304 7.78898888 25.35115205 8.34765625 27.83203125 C8.52780777 28.60400345 8.70795929 29.37597565 8.89356995 30.17134094 C10.11387171 35.65838488 10.11387171 35.65838488 9 39 C7.35 38.67 5.7 38.34 4 38 C4.99 37.505 4.99 37.505 6 37 C5.18932476 32.74964982 4.37614508 28.49978258 3.5625 24.25 C3.21735352 22.44015625 3.21735352 22.44015625 2.86523438 20.59375 C2.53168945 18.85351562 2.53168945 18.85351562 2.19140625 17.078125 C1.98717041 16.00981445 1.78293457 14.94150391 1.57250977 13.84082031 C1.23562961 12.16920517 0.86768339 10.50243973 0.42944336 8.85449219 C-0.25076973 5.91708537 -0.05768512 2.99962633 0 0 Z " fill="#CDCCED" transform="translate(26,62)"/>
<path d="M0 0 C0.495 0.495 0.99 0.99 1.5 1.5 C0.1875 3 0.1875 3 -1.5 4.5 C-2.49 4.5 -3.48 4.5 -4.5 4.5 C-4.5 6.15 -4.5 7.8 -4.5 9.5 C-4.83 9.5 -5.16 9.5 -5.5 9.5 C-5.83 6.53 -6.16 3.56 -6.5 0.5 C-7.23637695 0.65670166 -7.97275391 0.81340332 -8.73144531 0.97485352 C-12.0691222 1.6798075 -15.40945127 2.37128876 -18.75 3.0625 C-19.90886719 3.30935547 -21.06773438 3.55621094 -22.26171875 3.81054688 C-23.37675781 4.03935547 -24.49179687 4.26816406 -25.640625 4.50390625 C-26.66704102 4.71861572 -27.69345703 4.9333252 -28.75097656 5.15454102 C-31.3930768 5.48656338 -33.00892539 5.35728404 -35.5 4.5 C-30.73577267 2.31023092 -25.79796763 1.39032469 -20.6875 0.375 C-19.82318359 0.19324219 -18.95886719 0.01148437 -18.06835938 -0.17578125 C-4.74938148 -2.84962889 -4.74938148 -2.84962889 0 0 Z " fill="#E3E3FB" transform="translate(87.5,73.5)"/>
<path d="M0 0 C2.9375 0.1875 2.9375 0.1875 3.9375 1.1875 C4.0625 4.6875 4.0625 4.6875 3.9375 8.1875 C2.9375 9.1875 2.9375 9.1875 -0.625 9.25 C-1.759375 9.229375 -2.89375 9.20875 -4.0625 9.1875 C-4.6875 5.8125 -4.6875 5.8125 -5.0625 2.1875 C-3.0625 0.1875 -3.0625 0.1875 0 0 Z " fill="#78BD60" transform="translate(42.0625,71.8125)"/>
<path d="M0 0 C0.87890625 6.15234375 0.87890625 6.15234375 1 8 C0 9 0 9 -3.5625 9.0625 C-4.696875 9.041875 -5.83125 9.02125 -7 9 C-7.33 6.69 -7.66 4.38 -8 2 C-4.77208445 -0.1519437 -3.71599191 -0.20086443 0 0 Z " fill="#8FC87C" transform="translate(48,86)"/>
<path d="M0 0 C1 1 1 1 1.0625 4.5625 C1.041875 5.696875 1.02125 6.83125 1 8 C-1.31 8.33 -3.62 8.66 -6 9 C-7.76462683 5.91190305 -8 4.76687864 -8 1 C-5.05549278 0.01849759 -3.06481021 -0.1613058 0 0 Z " fill="#8EC87A" transform="translate(42,58)"/>
<path d="M0 0 C0.87454834 0.04713135 1.74909668 0.0942627 2.65014648 0.14282227 C4.06650391 0.21533203 4.06650391 0.21533203 5.51147461 0.28930664 C6.50469727 0.34538086 7.49791992 0.40145508 8.52124023 0.45922852 C9.51833008 0.51143555 10.51541992 0.56364258 11.54272461 0.61743164 C14.01501545 0.74755221 16.48694653 0.88253033 18.95874023 1.02172852 C18.95874023 1.35172852 18.95874023 1.68172852 18.95874023 2.02172852 C11.36874023 3.34172852 3.77874023 4.66172852 -4.04125977 6.02172852 C-2.84296654 0.03026241 -2.84296654 0.03026241 0 0 Z " fill="#C6C5E3" transform="translate(35.041259765625,24.978271484375)"/>
<path d="M0 0 C0 0.99 0 1.98 0 3 C-4.87804878 7.87804878 -4.87804878 7.87804878 -8.875 8.3125 C-9.926875 8.1578125 -9.926875 8.1578125 -11 8 C-9.68 6.35 -8.36 4.7 -7 3 C-8.65 3.66 -10.3 4.32 -12 5 C-9.30839269 -1.21140148 -6.29369588 -1.18748979 0 0 Z " fill="#75BB5D" transform="translate(65,34)"/>
<path d="M0 0 C0.33 1.32 0.66 2.64 1 4 C-1 6 -1 6 -3.53125 6.046875 C-5.00078125 5.89992188 -5.00078125 5.89992188 -6.5 5.75 C-7.4796875 5.66234375 -8.459375 5.5746875 -9.46875 5.484375 C-12 5 -12 5 -14 3 C-7.07 1.515 -7.07 1.515 0 0 Z " fill="#DBDCF8" transform="translate(79,100)"/>
<path d="M0 0 C0 0.66 0 1.32 0 2 C-2.97 3.65 -5.94 5.3 -9 7 C-9 5.35 -9 3.7 -9 2 C-5.85636787 -0.61969344 -3.87356388 -1.57811862 0 0 Z " fill="#9D8242" transform="translate(92,76)"/>
<path d="M0 0 C5 1 5 1 7 3 C5.6875 4.5 5.6875 4.5 4 6 C3.01 6 2.02 6 1 6 C1 7.65 1 9.3 1 11 C0.67 11 0.34 11 0 11 C0 7.37 0 3.74 0 0 Z " fill="#E2CB9C" transform="translate(82,72)"/>
<path d="M0 0 C0 0.66 0 1.32 0 2 C-4.29 2.99 -8.58 3.98 -13 5 C-11 1 -11 1 -8.75 0.25 C-5.81594472 -0.0167323 -2.94459603 -0.06847898 0 0 Z " fill="#D1D0F1" transform="translate(81,98)"/>
<path d="M0 0 C0.66 0 1.32 0 2 0 C2 1.65 2 3.3 2 5 C-0.31 5.33 -2.62 5.66 -5 6 C-5.33 4.35 -5.66 2.7 -6 1 C-3.525 1.99 -3.525 1.99 -1 3 C-0.67 2.01 -0.34 1.02 0 0 Z " fill="#75BC5D" transform="translate(41,61)"/>
<path d="M0 0 C1.32 0.66 2.64 1.32 4 2 C3.25 7.75 3.25 7.75 1 10 C0.34 9.67 -0.32 9.34 -1 9 C-0.67 6.03 -0.34 3.06 0 0 Z " fill="#C42A5A" transform="translate(102,45)"/>
<path d="M0 0 C0.33 0 0.66 0 1 0 C1.98248524 4.0527516 2.08159574 7.83861737 2 12 C1.01 12.495 1.01 12.495 0 13 C-0.66 9.37 -1.32 5.74 -2 2 C-1.34 2 -0.68 2 0 2 C0 1.34 0 0.68 0 0 Z " fill="#D4D2F3" transform="translate(84,35)"/>
<path d="M0 0 C0.66 0 1.32 0 2 0 C1.67 1.65 1.34 3.3 1 5 C-1.31 5 -3.62 5 -6 5 C-5.67 3.68 -5.34 2.36 -5 1 C-4.01 1.33 -3.02 1.66 -2 2 C-1.34 1.34 -0.68 0.68 0 0 Z " fill="#73BB5A" transform="translate(47,90)"/>
<path d="M0 0 C0.66 0.33 1.32 0.66 2 1 C1.67 1.99 1.34 2.98 1 4 C1.66 4.66 2.32 5.32 3 6 C0.69 6 -1.62 6 -4 6 C-3.67 4.35 -3.34 2.7 -3 1 C-2.01 0.67 -1.02 0.34 0 0 Z " fill="#99CD88" transform="translate(42,75)"/>
<path d="M0 0 C0.66 0.66 1.32 1.32 2 2 C1.9765625 4.8203125 1.9765625 4.8203125 1.625 8.125 C1.51414062 9.22070312 1.40328125 10.31640625 1.2890625 11.4453125 C1.19367188 12.28835937 1.09828125 13.13140625 1 14 C0.67 14 0.34 14 0 14 C-0.19456705 12.04235617 -0.38044247 10.08384679 -0.5625 8.125 C-0.66691406 7.03445312 -0.77132812 5.94390625 -0.87890625 4.8203125 C-1 2 -1 2 0 0 Z " fill="#C1BFDD" transform="translate(86,45)"/>
<path d="M0 0 C4.455 1.98 4.455 1.98 9 4 C9 4.66 9 5.32 9 6 C5.51669784 5.35494404 2.90567134 4.01782732 0 2 C0 1.34 0 0.68 0 0 Z " fill="#F1CA74" transform="translate(94,50)"/>
</svg>
