<?xml version="1.0" encoding="UTF-8"?>
<svg version="1.1" xmlns="http://www.w3.org/2000/svg" width="256" height="256">
<path d="M0 0 C3.75331237 3.49740471 4.57082024 6.66328884 5.75 11.5625 C6.16765625 13.28339844 6.16765625 13.28339844 6.59375 15.0390625 C7.33944579 18.2082696 8.05676049 21.38146481 8.75 24.5625 C9.91917969 24.73265625 11.08835938 24.9028125 12.29296875 25.078125 C13.84127467 25.32210048 15.38944496 25.56693771 16.9375 25.8125 C18.09088867 25.97685547 18.09088867 25.97685547 19.26757812 26.14453125 C24.12034829 26.93597016 27.16093619 27.96646713 30.75 31.5625 C34.27035194 38.60320389 31.36334831 49.85381027 30.21875 57.35546875 C29.98569153 58.96268547 29.98569153 58.96268547 29.7479248 60.60237122 C29.25664059 63.98614827 28.75443459 67.36816027 28.25 70.75 C27.7463307 74.14264493 27.24531447 77.53558598 26.7520752 80.92976379 C26.44672538 83.02987507 26.13547715 85.12914047 25.81726074 87.2273407 C24.56505423 95.8195236 23.92275741 103.2574749 26.75 111.5625 C27.25861572 110.53479492 27.76723145 109.50708984 28.29125977 108.44824219 C30.20856616 104.57698733 32.13145682 100.70852757 34.0559082 96.84082031 C34.88259114 95.17749634 35.70782743 93.51345246 36.53149414 91.84863281 C50.12872277 64.37313862 50.12872277 64.37313862 53.75 62.5625 C61.95783543 61.32358144 67.96098862 65.22533404 74.75 69.5625 C77.14091019 71.33904355 77.68028183 72.36334724 78.67578125 75.20703125 C78.7803704 79.93556184 77.05519066 83.09459714 74.9375 87.25 C74.4125293 88.32991211 74.4125293 88.32991211 73.87695312 89.43164062 C70.65023256 95.98952416 67.19089592 102.42982519 63.77761841 108.89178467 C60.64082492 114.84120146 57.55690854 120.81578497 54.50390625 126.80859375 C54.07522751 127.64929916 53.64654877 128.49000458 53.20487976 129.35618591 C51.45811741 132.78350225 49.71263936 136.21145364 47.97192383 139.6418457 C46.67346744 142.19916705 45.3703149 144.75404907 44.06640625 147.30859375 C43.67578506 148.08142197 43.28516388 148.85425018 42.88270569 149.65049744 C41.38803845 152.57222259 40.00302071 155.24035686 37.97070312 157.82788086 C36.43472764 160.01050202 36.50283061 160.9637742 36.90234375 163.5703125 C37.07999268 164.75222168 37.07999268 164.75222168 37.26123047 165.95800781 C38.36502732 171.83977847 39.67351764 177.67385729 41.02148438 183.50390625 C44.58515163 199.73261834 44.58515163 199.73261834 41.3125 206.5625 C34.89807389 211.56888136 26.00958198 212.41957308 18.1875 213.75 C17.17880859 213.92724609 16.17011719 214.10449219 15.13085938 214.28710938 C12.67156921 214.71835931 10.21137743 215.14335819 7.75 215.5625 C7.64042969 216.64789063 7.53085938 217.73328125 7.41796875 218.8515625 C7.25841392 220.29694152 7.09822389 221.74225051 6.9375 223.1875 C6.86724609 223.90035156 6.79699219 224.61320313 6.72460938 225.34765625 C6.0894627 230.88613523 4.97136383 235.65847386 0.5625 239.4375 C-6.7619089 242.36726356 -15.7040928 239.92874959 -23.25390625 238.8125 C-24.49115952 238.63493164 -25.72841278 238.45736328 -27.00315857 238.27441406 C-30.9403868 237.70908089 -34.87655786 237.13669695 -38.8125 236.5625 C-42.75201624 235.98834286 -46.69185148 235.41656513 -50.6325531 234.85058594 C-53.07956644 234.49912322 -55.52594421 234.14319852 -57.97157288 233.78222656 C-66.44601344 232.56471878 -73.72158095 232.21375865 -82.125 234.12890625 C-83.61973894 234.45271743 -85.11453229 234.77627754 -86.609375 235.09960938 C-88.93391853 235.61123492 -91.25751263 236.12668373 -93.58007812 236.6472168 C-95.84292014 237.15147861 -98.10860401 237.64090578 -100.375 238.12890625 C-101.06062012 238.28718399 -101.74624023 238.44546173 -102.45263672 238.60853577 C-108.14977213 239.82337381 -112.98697992 239.92031205 -118.0625 236.875 C-121.66284032 233.06892595 -122.25 229.71094995 -122.25 224.5625 C-123.12736816 224.45703857 -124.00473633 224.35157715 -124.90869141 224.24291992 C-128.18627121 223.84356916 -131.46229512 223.43426477 -134.73779297 223.01831055 C-136.15136386 222.84084717 -137.56542985 222.66727975 -138.97998047 222.49780273 C-141.0219591 222.25244871 -143.06170263 221.99279091 -145.1015625 221.73046875 C-146.32697754 221.57860107 -147.55239258 221.4267334 -148.81494141 221.27026367 C-152.54166189 220.50240563 -155.09677252 219.70762723 -158.25 217.5625 C-161.19479214 212.224734 -161.53622224 208.30715517 -160.64233398 202.27001953 C-160.48981375 201.09632907 -160.48981375 201.09632907 -160.3342123 199.89892769 C-159.28281613 192.11663314 -157.86104962 184.39901917 -156.42083168 176.68125343 C-148.02376177 130.98261453 -145.57518517 92.68924025 -158.86621094 47.86743164 C-160.47159484 42.18957196 -161.26963068 37.86775198 -158.8125 32.3125 C-152.93369088 26.00353411 -143.40947674 25.7360288 -135.25 24.5625 C-135.22421875 23.91023438 -135.1984375 23.25796875 -135.171875 22.5859375 C-134.80151255 16.87898878 -134.22032404 12.97397116 -130.25 8.5625 C-126.55877176 6.68480185 -123.94094465 6.37740039 -119.8515625 6.80859375 C-118.2722998 6.97270752 -118.2722998 6.97270752 -116.66113281 7.14013672 C-109.37445069 8.0423669 -102.11279072 9.10327561 -94.8515625 10.18945312 C-93.01851562 10.45338867 -93.01851562 10.45338867 -91.1484375 10.72265625 C-89.51914307 10.96447632 -89.51914307 10.96447632 -87.85693359 11.21118164 C-77.96955263 12.17422084 -69.20727982 10.79574508 -59.51953125 8.71875 C-58.1159187 8.42622208 -56.71207971 8.13477877 -55.30802917 7.84436035 C-51.63806121 7.08320299 -47.97040973 6.3114918 -44.30340576 5.53619385 C-38.42593902 4.29378558 -32.546573 3.06081682 -26.66440392 1.84086609 C-24.62306822 1.41481491 -22.58373155 0.98002648 -20.54438782 0.54455566 C-19.29586533 0.28428589 -18.04734283 0.02401611 -16.76098633 -0.24414062 C-15.66973953 -0.47508423 -14.57849274 -0.70602783 -13.45417786 -0.94396973 C-8.53342288 -1.70189942 -4.59823078 -2.03383285 0 0 Z " fill="#F2F0FB" transform="translate(169.25,8.4375)"/>
<path d="M0 0 C12.91048685 5.67878726 12.91048685 5.67878726 16 10 C17.36831092 13.90863498 17.06776403 16.37451438 15.48046875 20.07421875 C14.73321373 21.62034506 13.9676473 23.15770694 13.1875 24.6875 C12.56464111 25.95231201 12.56464111 25.95231201 11.92919922 27.24267578 C8.87276927 33.40259299 5.69466623 39.50187227 2.45385742 45.56665039 C-0.69709589 51.47312222 -3.75505453 57.42353795 -6.7890625 63.390625 C-7.65312705 65.08676684 -8.51722238 66.782893 -9.38134766 68.47900391 C-10.69090424 71.04999001 -11.99843841 73.62191047 -13.29998779 76.19696045 C-14.52813735 78.62617105 -15.76339772 81.05164657 -17 83.4765625 C-17.37355621 84.22045227 -17.74711243 84.96434204 -18.13198853 85.73077393 C-20.7726846 90.8863423 -20.7726846 90.8863423 -23 92 C-25.3984375 91.05957031 -25.3984375 91.05957031 -28.375 89.578125 C-29.44234375 89.04703125 -30.5096875 88.5159375 -31.609375 87.96875 C-32.72828125 87.4015625 -33.8471875 86.834375 -35 86.25 C-36.11890625 85.69828125 -37.2378125 85.1465625 -38.390625 84.578125 C-39.45796875 84.041875 -40.5253125 83.505625 -41.625 82.953125 C-42.60726562 82.45973633 -43.58953125 81.96634766 -44.6015625 81.45800781 C-47 80 -47 80 -49 77 C-48.65219482 76.33991943 -48.30438965 75.67983887 -47.94604492 74.99975586 C-46.35711342 71.98044191 -44.77227751 68.95899622 -43.1875 65.9375 C-42.64029297 64.89916016 -42.09308594 63.86082031 -41.52929688 62.79101562 C-40.99755859 61.77587891 -40.46582031 60.76074219 -39.91796875 59.71484375 C-39.43094482 58.78792725 -38.9439209 57.86101074 -38.44213867 56.90600586 C-36.82850364 53.65442337 -35.42969576 50.33633136 -34 47 C-32.78053032 44.41562401 -31.51061998 41.85751819 -30.234375 39.30078125 C-29.87788879 38.58448044 -29.52140259 37.86817963 -29.15411377 37.13017273 C-28.40213047 35.62117117 -27.64908208 34.11269995 -26.89501953 32.60473633 C-25.76286514 30.33825496 -24.63714367 28.06865688 -23.51171875 25.79882812 C-9.74046393 -1.85603352 -9.74046393 -1.85603352 0 0 Z " fill="#57B3FD" transform="translate(231,71)"/>
<path d="M0 0 C0.66 0 1.32 0 2 0 C2.12528076 0.66193359 2.25056152 1.32386719 2.37963867 2.00585938 C5.69669642 19.49224452 9.2244521 36.92298176 12.91943359 54.33300781 C20.06651468 88.01018506 20.06651468 88.01018506 23 103.1875 C23.20753906 104.25532715 23.41507813 105.3231543 23.62890625 106.42333984 C23.81324219 107.39094238 23.99757812 108.35854492 24.1875 109.35546875 C24.34605469 110.18715576 24.50460938 111.01884277 24.66796875 111.87573242 C25 114 25 114 25 117 C20.83553454 116.49942284 16.67321119 115.98421488 12.51220703 115.45581055 C11.09863614 115.27834717 9.68457015 115.10477975 8.27001953 114.93530273 C6.2280409 114.68994871 4.18829737 114.43029091 2.1484375 114.16796875 C0.92302246 114.01610107 -0.30239258 113.8642334 -1.56494141 113.70776367 C-5.29166189 112.93990563 -7.84677252 112.14512723 -11 110 C-13.92817571 104.6843124 -14.27707649 100.8406131 -13.36376953 94.83447266 C-13.26116884 94.05618418 -13.15856815 93.2778957 -13.05285835 92.47602272 C-12.71967568 89.9812222 -12.36015557 87.49103381 -12 85 C-11.77938459 83.3731943 -11.56060798 81.74613815 -11.34368896 80.11883545 C-10.6494001 74.95811789 -9.91575876 69.80333371 -9.1796875 64.6484375 C-8.91326841 62.76847602 -8.64708857 60.88848062 -8.38113403 59.00845337 C-7.68976755 54.12571933 -6.99521264 49.24344434 -6.29992676 44.36126709 C-5.58729713 39.35310422 -4.87777491 34.34450118 -4.16796875 29.3359375 C-2.78163756 19.55686545 -1.39192793 9.77827689 0 0 Z " fill="#DDDEFA" transform="translate(22,116)"/>
<path d="M0 0 C2.8071336 2.8071336 3.19727527 4.46505601 3.375 8.375 C2.62863281 8.61605469 1.88226563 8.85710938 1.11328125 9.10546875 C-2.00574443 10.55152203 -3.3072433 12.01907318 -5.4375 14.6875 C-9.92632379 19.87012709 -13.70530574 24.00813206 -20.796875 24.671875 C-23.75890594 24.68578125 -26.67201623 24.59647378 -29.625 24.375 C-29.93937748 30.91870905 -30.01893753 35.57702339 -26.625 41.375 C-26.625 42.695 -26.625 44.015 -26.625 45.375 C-27.945 45.375 -29.265 45.375 -30.625 45.375 C-35.21725513 35.96497722 -35.21725513 35.96497722 -34.625 31.375 C-35.615 31.705 -36.605 32.035 -37.625 32.375 C-47.34799576 33.80805348 -53.77627336 29.60748442 -61.625 24.375 C-63.94887947 23.98112212 -66.28293749 23.64013915 -68.625 23.375 C-68.38599616 17.28040206 -68.38599616 17.28040206 -66.328125 14.83203125 C-60.83174695 10.19276166 -56.01750375 9.92204137 -49.0703125 9.953125 C-43.71701394 10.60863095 -39.7309849 12.95195782 -35.625 16.375 C-34.965 17.365 -34.305 18.355 -33.625 19.375 C-33.52703125 18.79492188 -33.4290625 18.21484375 -33.328125 17.6171875 C-32.1814337 11.62671398 -30.80834238 6.83758561 -25.76171875 2.93359375 C-18.14529823 -2.10098931 -8.53495641 -3.82601494 0 0 Z " fill="#70B957" transform="translate(128.625,41.625)"/>
<path d="M0 0 C-0.25679563 2.5437873 -0.52992542 5.08405374 -0.8125 7.625 C-0.91788086 8.69427734 -0.91788086 8.69427734 -1.02539062 9.78515625 C-1.6605373 15.32363523 -2.77863617 20.09597386 -7.1875 23.875 C-14.51841711 26.80736685 -23.57374428 24.38820783 -31.14453125 23.3203125 C-32.39127121 23.14748749 -33.63801117 22.97466248 -34.92253113 22.79660034 C-37.54603806 22.43114231 -40.16910143 22.0633887 -42.79174805 21.69189453 C-46.15076214 21.21659128 -49.5113244 20.75341614 -52.87247181 20.2934742 C-56.08916761 19.85127845 -59.30425399 19.39768961 -62.51953125 18.9453125 C-63.72575638 18.78064484 -64.93198151 18.61597717 -66.17475891 18.44631958 C-67.28989365 18.28630463 -68.40502838 18.12628967 -69.55395508 17.96142578 C-70.53576248 17.82374786 -71.51756989 17.68606995 -72.52912903 17.54421997 C-75 17 -75 17 -78 15 C-76.41638672 14.6757605 -76.41638672 14.6757605 -74.80078125 14.3449707 C-69.86708442 13.33465001 -64.93351217 12.32372198 -60 11.3125 C-58.66795029 11.03947052 -58.66795029 11.03947052 -57.30899048 10.76092529 C-45.68026889 8.37678252 -34.05363146 5.98364697 -22.43554688 3.5480957 C-20.76648374 3.19858428 -19.09707143 2.85073443 -17.42724609 2.50488281 C-15.72576887 2.1509646 -14.0256743 1.79036426 -12.32666016 1.42480469 C-11.45187012 1.24079102 -10.57708008 1.05677734 -9.67578125 0.8671875 C-8.89759033 0.7007373 -8.11939941 0.53428711 -7.31762695 0.36279297 C-4.84401575 -0.02441721 -2.49972112 -0.06136659 0 0 Z " fill="#DDDEFA" transform="translate(177,224)"/>
<path d="M0 0 C2.37720939 0.25707735 4.75076606 0.53017068 7.125 0.8125 C8.12273437 0.91788086 8.12273437 0.91788086 9.140625 1.02539062 C14.4178957 1.67211498 18.93221375 2.78603368 22.64990234 6.76654053 C27.02734135 14.00811493 23.44265093 26.49544114 22.25 34.421875 C22.07243164 35.64787415 21.89486328 36.87387329 21.71191406 38.13702393 C21.14923283 42.00922754 20.57482405 45.87958234 20 49.75 C19.6128431 52.39297812 19.22837972 55.0363394 18.84375 57.6796875 C17.90475837 64.12112473 16.95616147 70.56109029 16 77 C14.3016524 73.93793513 13.48247 71.13322837 12.81079102 67.70336914 C12.60039688 66.6444899 12.39000275 65.58561066 12.17323303 64.49464417 C11.95235519 63.35301315 11.73147736 62.21138214 11.50390625 61.03515625 C11.26969467 59.85086533 11.03548309 58.6665744 10.79417419 57.44639587 C10.0448221 53.65281552 9.30326836 49.85776499 8.5625 46.0625 C7.82403425 42.29963411 7.08388028 38.53711211 6.34153748 34.77500916 C5.88038589 32.43579766 5.42161878 30.09611428 4.9657135 27.75587463 C3.65516478 21.08335252 2.19669041 14.47096463 0.56382751 7.86936951 C0.03103111 5.15792016 -0.10813686 2.7534281 0 0 Z " fill="#D1CFF2" transform="translate(177,33)"/>
<path d="M0 0 C12.91048685 5.67878726 12.91048685 5.67878726 16 10 C17.41271849 14.00665959 17.01713778 16.48649479 15.3828125 20.26953125 C14.64616181 21.79167864 13.8930452 23.3059498 13.125 24.8125 C12.74730469 25.58787109 12.36960938 26.36324219 11.98046875 27.16210938 C9.21649096 32.78350904 9.21649096 32.78350904 8 34 C1.52591106 33.72560153 -3.21883521 31.09564846 -8.8125 28 C-10.09930664 27.30390625 -10.09930664 27.30390625 -11.41210938 26.59375 C-12.9906887 25.73925545 -14.56690347 24.88036708 -16.13989258 24.015625 C-17.41391444 23.32000472 -18.70168747 22.64915626 -20 22 C-19.43225293 16.94007875 -17.05210688 13.08246142 -14.5625 8.75 C-14.15451172 8.0178125 -13.74652344 7.285625 -13.32617188 6.53125 C-9.93972568 0.56491738 -7.21015705 -1.37388663 0 0 Z " fill="#F3506F" transform="translate(231,71)"/>
<path d="M0 0 C0.66 0 1.32 0 2 0 C2.12528076 0.66193359 2.25056152 1.32386719 2.37963867 2.00585938 C5.69669642 19.49224452 9.2244521 36.92298176 12.91943359 54.33300781 C20.06651468 88.01018506 20.06651468 88.01018506 23 103.1875 C23.20753906 104.25532715 23.41507813 105.3231543 23.62890625 106.42333984 C23.81324219 107.39094238 23.99757813 108.35854492 24.1875 109.35546875 C24.34605469 110.18715576 24.50460938 111.01884277 24.66796875 111.87573242 C25 114 25 114 25 117 C22.36 116.67 19.72 116.34 17 116 C16.8209613 115.10258591 16.64192261 114.20517181 16.4574585 113.28056335 C14.75262844 104.73620102 13.04682267 96.19203414 11.33997726 87.64807415 C10.46294795 83.25775523 9.58626875 78.86736707 8.71044922 74.47680664 C7.86192159 70.22313525 7.01239663 65.96966405 6.16223907 61.71631813 C5.84143299 60.11046962 5.52095955 58.50455461 5.20085907 56.89856529 C4.74519697 54.61277083 4.28823752 52.32723878 3.83105469 50.04174805 C3.68463406 49.3059788 3.53821342 48.57020956 3.3873558 47.81214428 C2.59111894 43.83807439 1.75866302 39.87491653 0.88146973 35.9178772 C0.69622364 35.0723998 0.51097755 34.2269224 0.32011795 33.35582447 C-0.03432246 31.74540626 -0.39540674 30.136429 -0.76460648 28.52933025 C-2.41864977 20.98080402 -2.17894859 14.16316581 -1 6.5 C-0.814375 5.2728125 -0.62875 4.045625 -0.4375 2.78125 C-0.293125 1.8634375 -0.14875 0.945625 0 0 Z " fill="#D0CEF2" transform="translate(22,116)"/>
<path d="M0 0 C3.3 0.99 6.6 1.98 10 3 C9.32517578 4.34964844 9.32517578 4.34964844 8.63671875 5.7265625 C8.3327417 6.33467773 8.02876465 6.94279297 7.71557617 7.56933594 C7.01443378 8.97128771 6.31275077 10.37296921 5.6105957 11.77441406 C3.52995612 15.92946511 1.4605227 20.08965651 -0.59375 24.2578125 C-6.74037902 36.69365272 -13.21542427 48.90062123 -20 61 C-22.64 59.68 -25.28 58.36 -28 57 C-27.4074368 53.36071177 -26.41206024 50.47275964 -24.73095703 47.19726562 C-24.26021759 46.2728064 -23.78947815 45.34834717 -23.30447388 44.39587402 C-22.79407562 43.4092981 -22.28367737 42.42272217 -21.7578125 41.40625 C-21.23363739 40.38196899 -20.70946228 39.35768799 -20.16940308 38.30236816 C-19.06095352 36.13907148 -17.94956342 33.97727933 -16.83544922 31.81689453 C-15.13282527 28.51517472 -13.43866299 25.20922736 -11.74609375 21.90234375 C-10.66715795 19.79922705 -9.58774665 17.69635422 -8.5078125 15.59375 C-8.00146271 14.60717407 -7.49511292 13.62059814 -6.97341919 12.60412598 C-6.49637543 11.67966675 -6.01933167 10.75520752 -5.52783203 9.80273438 C-5.11115265 8.99396851 -4.69447327 8.18520264 -4.26516724 7.35192871 C-2.91989809 4.85109163 -1.47871831 2.4239211 0 0 Z " fill="#4A7DFD" transform="translate(229,102)"/>
<path d="M0 0 C2.84265232 4.21496724 3.22783006 8.70723918 3.8125 13.6875 C3.90917969 14.40292969 4.00585938 15.11835938 4.10546875 15.85546875 C4.25 17.6875 4.25 17.6875 3.8125 20.6875 C-0.72158735 24.79651666 -7.52995397 25.75856432 -13.5 26 C-17.1875 25.6875 -17.1875 25.6875 -18.80859375 24.5625 C-20.71942986 21.96419594 -21.22832439 19.51201662 -21.9375 16.375 C-22.20046875 15.26511719 -22.4634375 14.15523437 -22.734375 13.01171875 C-23.20476892 9.5608116 -23.06055381 7.04875715 -22.1875 3.6875 C-19.56908129 1.06908129 -17.47162235 0.86899063 -13.875 0.0625 C-12.74449219 -0.19789063 -11.61398438 -0.45828125 -10.44921875 -0.7265625 C-3.33957373 -2.00374424 -3.33957373 -2.00374424 0 0 Z " fill="#72BB59" transform="translate(82.1875,192.3125)"/>
<path d="M0 0 C2.50040308 2.50040308 2.78364454 4.33358691 3.625 7.75 C4.01558594 9.28914062 4.01558594 9.28914062 4.4140625 10.859375 C5.01651355 14.08851262 5.38397621 16.7317374 5 20 C2.20499018 23.95674984 -0.81408577 24.81298733 -5.4375 25.8125 C-6.54996094 26.06644531 -7.66242188 26.32039063 -8.80859375 26.58203125 C-11.99267547 26.99904073 -13.98885255 27.08979779 -17 26 C-21.65127515 21.28601103 -21.81264284 14.36070021 -22.3125 8.0625 C-22 5 -22 5 -20.8046875 3.3828125 C-15.55096884 -0.64276413 -6.38059327 -0.46404315 0 0 Z " fill="#72BB59" transform="translate(73,151)"/>
<path d="M0 0 C3.63863363 2.76185444 3.89646465 5.98942941 4.66015625 10.28125 C5.15351566 14.22812531 5.12818334 18.02631654 5 22 C-1.30415472 24.95088093 -7.36433724 26.93267291 -14.375 27.0625 C-17 26 -17 26 -18.8125 22.75 C-20.65697107 16.92535453 -22.00815306 11.13194271 -21 5 C-16.20861678 0.20861678 -6.44094084 -0.64409408 0 0 Z " fill="#72BA59" transform="translate(64,110)"/>
<path d="M0 0 C1.05123047 0.10940918 2.10246094 0.21881836 3.18554688 0.33154297 C10.49725461 1.24207601 17.78821036 2.27806187 25.078125 3.34765625 C26.70958763 3.58431403 28.34109779 3.82064443 29.97265625 4.05664062 C33.92503624 4.62904633 37.87675001 5.20585531 41.828125 5.78515625 C38.95940541 7.69763598 37.45519939 8.24427729 34.17651367 8.93017578 C33.23511032 9.13023224 32.29370697 9.3302887 31.32377625 9.53640747 C30.30814102 9.74482269 29.2925058 9.95323792 28.24609375 10.16796875 C27.19915848 10.3870993 26.15222321 10.60622986 25.07356262 10.83200073 C22.85757222 11.29405343 20.64089017 11.75279945 18.42358398 12.20849609 C15.03752124 12.90564806 11.65444776 13.61610372 8.27148438 14.328125 C6.11735435 14.77554366 3.96306246 15.22218382 1.80859375 15.66796875 C0.79903122 15.88043243 -0.21053131 16.09289612 -1.25068665 16.3117981 C-5.96196719 17.27179308 -10.33371247 18.06185606 -15.171875 17.78515625 C-14.92216818 11.46757358 -14.58230522 6.68563427 -10.171875 1.78515625 C-6.55709235 -0.03937216 -4.00131676 -0.41713546 0 0 Z " fill="#D1CFF2" transform="translate(49.171875,15.21484375)"/>
<path d="M0 0 C3.83097267 0.60679709 6.84967736 1.74808147 10.30078125 3.50390625 C11.27724609 3.99697266 12.25371094 4.49003906 13.25976562 4.99804688 C14.26716797 5.51431641 15.27457031 6.03058594 16.3125 6.5625 C17.33923828 7.08263672 18.36597656 7.60277344 19.42382812 8.13867188 C21.9520146 9.42040362 24.477224 10.70766061 27 12 C27 15 27 15 25.29125977 16.98535156 C21.4659471 20.34885504 17.20710583 22.9885634 12.9375 25.75 C12.02677734 26.35199219 11.11605469 26.95398438 10.17773438 27.57421875 C9.30310547 28.14269531 8.42847656 28.71117187 7.52734375 29.296875 C6.73062256 29.81604492 5.93390137 30.33521484 5.11303711 30.87011719 C3 32 3 32 0 32 C-1.02419624 28.61618582 -1.12904436 25.5186322 -1.1328125 21.9921875 C-1.13410156 20.84105469 -1.13539063 19.68992188 -1.13671875 18.50390625 C-1.13285156 17.30636719 -1.12898437 16.10882813 -1.125 14.875 C-1.12886719 13.66972656 -1.13273438 12.46445313 -1.13671875 11.22265625 C-1.13542969 10.07410156 -1.13414062 8.92554688 -1.1328125 7.7421875 C-1.13168457 6.6888623 -1.13055664 5.63553711 -1.12939453 4.55029297 C-1 2 -1 2 0 0 Z " fill="#F8DA9D" transform="translate(181,150)"/>
<path d="M0 0 C-0.66 2.31 -1.32 4.62 -2 7 C-12.24451068 9.62317383 -22.50694429 12.10747434 -32.85449219 14.29248047 C-34.28630784 14.59780848 -35.71667594 14.91000435 -37.14550781 15.22900391 C-50.80410974 18.27496547 -64.25335713 19.70101923 -78 16 C-74.41541417 13.91125032 -70.84895266 13.23594412 -66.796875 12.44921875 C-66.09016159 12.31012085 -65.38344818 12.17102295 -64.65531921 12.02770996 C-62.35451992 11.57582585 -60.05228361 11.13175332 -57.75 10.6875 C-55.36526275 10.22065771 -52.98095128 9.75168353 -50.59666443 9.282547 C-49.00300972 8.96907101 -47.40922886 8.65623573 -45.81532288 8.34403992 C-38.07589933 6.82630209 -30.35547166 5.22229819 -22.63769531 3.59838867 C-20.92267129 3.23778981 -19.20735489 2.87857767 -17.49169922 2.52099609 C-15.76302057 2.15954202 -14.03555216 1.79227008 -12.30908203 1.42041016 C-11.43493652 1.23655762 -10.56079102 1.05270508 -9.66015625 0.86328125 C-8.88422119 0.69739502 -8.10828613 0.53150879 -7.30883789 0.3605957 C-4.83866463 -0.02519746 -2.49613829 -0.06097563 0 0 Z " fill="#D0CFF2" transform="translate(177,224)"/>
<path d="M0 0 C4.6310765 2.6599703 7.66293997 4.9246424 10.02734375 9.8359375 C9.69734375 10.4959375 9.36734375 11.1559375 9.02734375 11.8359375 C7.78984375 11.5471875 6.55234375 11.2584375 5.27734375 10.9609375 C-0.43395136 9.68568819 -6.19504586 8.75488061 -11.97265625 7.8359375 C-11.97265625 8.8259375 -11.97265625 9.8159375 -11.97265625 10.8359375 C-11.12316406 10.78953125 -10.27367188 10.743125 -9.3984375 10.6953125 C-5.56415514 10.85270607 -2.74129997 11.72714925 0.83984375 13.0859375 C2.55107422 13.71242188 2.55107422 13.71242188 4.296875 14.3515625 C7.02734375 15.8359375 7.02734375 15.8359375 7.9140625 18.0078125 C7.97013672 18.91273437 7.97013672 18.91273437 8.02734375 19.8359375 C2.53343362 21.66724088 -2.57821332 21.85053196 -7.96875 19.56640625 C-11.76699497 17.49326059 -15.37342952 15.23542199 -18.97265625 12.8359375 C-21.29653572 12.44205962 -23.63059374 12.10107665 -25.97265625 11.8359375 C-25.73365241 5.74133956 -25.73365241 5.74133956 -23.67578125 3.29296875 C-17.07074277 -2.28207611 -8.02150658 -3.14114187 0 0 Z " fill="#71BA58" transform="translate(85.97265625,53.1640625)"/>
<path d="M0 0 C5.24414718 -0.31464883 8.53939419 0.16143267 13 3 C16.66528202 6.97975888 16.39469583 10.08274665 16.26171875 15.29101562 C15.72995849 22.82693154 14.60285272 30.2802083 13.5 37.75 C13.2583459 39.42957708 13.01745495 41.10926415 12.77734375 42.7890625 C12.1936744 46.86069475 11.59973929 50.9307051 11 55 C10.67 55 10.34 55 10 55 C8.5690662 47.97214807 7.14568676 40.94279662 5.72753906 33.91235352 C5.24425108 31.52105107 4.75923733 29.13009673 4.27246094 26.73950195 C3.57292522 23.30249738 2.87961324 19.86428715 2.1875 16.42578125 C1.96876221 15.35789871 1.75002441 14.29001617 1.5246582 13.18977356 C1.32445068 12.18911362 1.12424316 11.18845367 0.91796875 10.1574707 C0.74031982 9.28032913 0.5626709 8.40318756 0.37963867 7.49946594 C-0.00609199 4.95989153 -0.06756522 2.56451331 0 0 Z " fill="#DDDEFA" transform="translate(185,35)"/>
<path d="M0 0 C-0.33 0.99 -0.66 1.98 -1 3 C-3.73789185 3.827116 -6.33433085 4.44259834 -9.1328125 4.98046875 C-9.98091492 5.1545224 -10.82901733 5.32857605 -11.70281982 5.50790405 C-14.50780586 6.08046475 -17.31618287 6.63406693 -20.125 7.1875 C-22.06290826 7.57878284 -24.00056929 7.97129196 -25.93798828 8.36499023 C-29.94767682 9.17822756 -33.9586955 9.9844189 -37.97070312 10.78613281 C-43.77343487 11.94924777 -49.5672101 13.15269306 -55.359375 14.3671875 C-58.01406596 14.92162935 -60.66885244 15.47561143 -63.32366943 16.02944946 C-65.0181139 16.38347044 -66.71233025 16.73858506 -68.40631104 17.09481812 C-70.76729641 17.59018021 -73.12952707 18.07910553 -75.4921875 18.56640625 C-76.52844269 18.78603531 -76.52844269 18.78603531 -77.58563232 19.01010132 C-81.11194905 19.73081362 -84.39978195 20.15884588 -88 20 C-88 18.68 -88 17.36 -88 16 C-46.65543831 7.24003325 -46.65543831 7.24003325 -27.81835938 3.55566406 C-24.86098149 2.97259129 -21.90708849 2.3735505 -18.953125 1.7734375 C-17.03133559 1.39019555 -15.10946415 1.00736464 -13.1875 0.625 C-11.87833618 0.35478027 -11.87833618 0.35478027 -10.54272461 0.07910156 C-9.73843018 -0.07848633 -8.93413574 -0.23607422 -8.10546875 -0.3984375 C-7.40574951 -0.53942871 -6.70603027 -0.68041992 -5.98510742 -0.82568359 C-3.76590141 -1.02055668 -2.11710261 -0.65283013 0 0 Z " fill="#DFE0FB" transform="translate(174,110)"/>
<path d="M0 0 C-0.33 1.32 -0.66 2.64 -1 4 C-1.95624268 4.1952124 -2.91248535 4.3904248 -3.89770508 4.59155273 C-7.67048996 5.36204378 -11.44296247 6.1340569 -15.21539307 6.90628052 C-16.94540416 7.2601418 -18.67550666 7.61355645 -20.40570068 7.96652222 C-30.9445618 10.11658475 -41.47331875 12.30607311 -51.98828125 14.5703125 C-54.91480744 15.19676482 -57.84146935 15.82257965 -60.76815796 16.44827271 C-62.66868524 16.85689023 -64.56845512 17.26904699 -66.46743774 17.68478394 C-69.13534806 18.26864852 -71.80558287 18.84052474 -74.4765625 19.41015625 C-75.26762894 19.58680817 -76.05869537 19.76346008 -76.87373352 19.94546509 C-80.8824325 20.7881632 -84.04363919 21.2053693 -88 20 C-87.505 18.515 -87.505 18.515 -87 17 C-84.80810547 16.20385742 -84.80810547 16.20385742 -81.8671875 15.60546875 C-80.76656982 15.37529053 -79.66595215 15.1451123 -78.53198242 14.90795898 C-77.32517822 14.67020752 -76.11837402 14.43245605 -74.875 14.1875 C-73.0038855 13.80283569 -73.0038855 13.80283569 -71.0949707 13.41040039 C-60.50963208 11.24122667 -49.89385788 9.21400378 -39.27929688 7.19360352 C-30.16084748 5.45067639 -21.08691957 3.55481667 -12.03979492 1.47241211 C-11.17845947 1.27784424 -10.31712402 1.08327637 -9.4296875 0.8828125 C-8.31956299 0.62588623 -8.31956299 0.62588623 -7.18701172 0.36376953 C-4.75884133 -0.04011235 -2.45716745 -0.06098395 0 0 Z " fill="#DFE0FB" transform="translate(181,150)"/>
<path d="M0 0 C-0.62548828 1.90673828 -0.62548828 1.90673828 -2 4 C-4.62841797 4.90966797 -4.62841797 4.90966797 -7.9921875 5.4921875 C-9.24136963 5.7193042 -10.49055176 5.9464209 -11.77758789 6.18041992 C-12.77896286 6.35013809 -12.77896286 6.35013809 -13.80056763 6.52328491 C-16.60737269 6.99917205 -19.40690893 7.51248017 -22.20735168 8.02427673 C-23.65296189 8.28825808 -25.0989216 8.55033205 -26.54521179 8.81056213 C-33.75240006 10.11330552 -40.90631329 11.62813321 -48.0625 13.1875 C-49.15868652 13.4251709 -50.25487305 13.6628418 -51.38427734 13.90771484 C-52.9748999 14.25310303 -52.9748999 14.25310303 -54.59765625 14.60546875 C-56.15057373 14.94070557 -56.15057373 14.94070557 -57.73486328 15.28271484 C-60.08557807 15.79911981 -62.43252095 16.33280416 -64.77685547 16.87744141 C-66.0248291 17.16151855 -67.27280273 17.4455957 -68.55859375 17.73828125 C-69.69482178 18.00294189 -70.8310498 18.26760254 -72.00170898 18.5402832 C-74.80571828 18.97021151 -76.37096071 18.95269023 -79 18 C-79 17.01 -79 16.02 -79 15 C-66.27746713 11.86749191 -53.47990316 9.22197058 -40.62158203 6.71044922 C-37.3599693 6.07061552 -34.10012186 5.42269936 -30.84075928 4.77154541 C-28.02334722 4.20977783 -25.20493285 3.6531585 -22.3862915 3.09759521 C-21.01478899 2.82637864 -19.64364601 2.5533369 -18.27288818 2.27838135 C-16.34576233 1.89241297 -14.41704338 1.51442536 -12.48828125 1.13671875 C-11.38009033 0.91717529 -10.27189941 0.69763184 -9.13012695 0.47143555 C-6.03449569 0.00519547 -3.12515253 -0.0855763 0 0 Z " fill="#DFE0FB" transform="translate(181,193)"/>
<path d="M0 0 C-0.33 0.99 -0.66 1.98 -1 3 C-3.22363281 3.79614258 -3.22363281 3.79614258 -6.203125 4.39453125 C-7.31534424 4.6251123 -8.42756348 4.85569336 -9.57348633 5.09326172 C-11.3933606 5.44928467 -11.3933606 5.44928467 -13.25 5.8125 C-15.11144653 6.19172607 -15.11144653 6.19172607 -17.01049805 6.57861328 C-19.64791993 7.11566061 -22.28593365 7.64803031 -24.92529297 8.17529297 C-28.97992397 8.98981821 -33.02344438 9.85233715 -37.06640625 10.72265625 C-38.37656591 11.00248626 -39.68678655 11.28203094 -40.99707031 11.5612793 C-43.49590733 12.0942089 -45.99398879 12.63069651 -48.49121094 13.17114258 C-54.09167066 14.34638698 -59.27244562 15.35117852 -65 15 C-64.67 13.68 -64.34 12.36 -64 11 C-50.54367173 8.21805275 -50.54367173 8.21805275 -43.9074707 6.85742188 C-43.13371597 6.69877655 -42.35996124 6.54013123 -41.5627594 6.37667847 C-39.98939839 6.05412359 -38.41602386 5.73163462 -36.84263611 5.40921021 C-32.00890668 4.41716758 -27.17931201 3.40745396 -22.3515625 2.38671875 C-20.13024711 1.92429288 -17.90889551 1.46204085 -15.6875 1 C-14.67051025 0.78061768 -13.65352051 0.56123535 -12.60571289 0.33520508 C-11.19793579 0.04552856 -11.19793579 0.04552856 -9.76171875 -0.25 C-8.95694092 -0.42015625 -8.15216309 -0.5903125 -7.32299805 -0.765625 C-4.68073868 -1.03221134 -2.56568625 -0.63708427 0 0 Z " fill="#E0E0FB" transform="translate(147,100)"/>
<path d="M0 0 C0 0.66 0 1.32 0 2 C-0.72445312 2.35191406 -1.44890625 2.70382813 -2.1953125 3.06640625 C-9.22731718 6.65741664 -15.39868958 10.19606873 -18 18 C-18.53039138 24.49729439 -18.3545484 29.26931315 -15 35 C-15 36.32 -15 37.64 -15 39 C-16.32 39 -17.64 39 -19 39 C-21.85288164 33.26769829 -23.53444296 28.40140935 -24 22 C-26.03876949 21.18025737 -28.08116075 20.3695193 -30.125 19.5625 C-31.26195313 19.11003906 -32.39890625 18.65757813 -33.5703125 18.19140625 C-36.74206741 17.08960073 -39.67942748 16.43904226 -43 16 C-43 15.01 -43 14.02 -43 13 C-35.54508438 13.36580804 -28.95068039 14.20919651 -22 17 C-21.7525 15.7315625 -21.7525 15.7315625 -21.5 14.4375 C-18.3750654 7.27619154 -11.96098389 3.58172593 -4.98046875 0.62890625 C-3 0 -3 0 0 0 Z " fill="#4F9838" transform="translate(117,48)"/>
<path d="M0 0 C-0.33 0.99 -0.66 1.98 -1 3 C-1.93980713 3.1858667 -2.87961426 3.3717334 -3.84790039 3.56323242 C-8.25329777 4.43532223 -12.65797522 5.31101504 -17.0625 6.1875 C-17.85577698 6.34517853 -18.64905396 6.50285706 -19.46636963 6.66531372 C-30.39265959 8.83985885 -41.2980938 11.08079699 -52.15649414 13.5769043 C-56.17175739 14.48142264 -59.85204711 15.28165112 -64 15 C-64 13.68 -64 12.36 -64 11 C-53.41595035 8.7990443 -42.82828165 6.61632816 -32.23583984 4.45611572 C-30.79206714 4.16158325 -29.34837622 3.86664947 -27.90478516 3.57122803 C-23.64752906 2.70039026 -19.38732844 1.84563168 -15.125 1 C-14.0520166 0.78061768 -12.9790332 0.56123535 -11.87353516 0.33520508 C-10.88659668 0.1420874 -9.8996582 -0.05103027 -8.8828125 -0.25 C-8.03090332 -0.42015625 -7.17899414 -0.5903125 -6.30126953 -0.765625 C-3.91331544 -1.00882847 -2.26942749 -0.7322843 0 0 Z " fill="#DFE0FB" transform="translate(155,141)"/>
<path d="M0 0 C-0.33 1.32 -0.66 2.64 -1 4 C-7.73938213 5.39209059 -14.47980848 6.77903888 -21.22094727 8.16259766 C-23.50894506 8.6327982 -25.79671091 9.10412903 -28.08422852 9.57666016 C-52.47996583 14.61450506 -52.47996583 14.61450506 -63 16 C-63 14.68 -63 13.36 -63 12 C-55.06110797 9.94606546 -47.10952224 8.13733644 -39.0625 6.5625 C-37.45810059 6.24599487 -37.45810059 6.24599487 -35.82128906 5.9230957 C-33.62548281 5.49104598 -31.42935686 5.06061784 -29.23291016 4.63183594 C-26.11646639 4.02276205 -23.00156308 3.40625469 -19.88671875 2.7890625 C-18.00792178 2.42131625 -16.12902066 2.05410158 -14.25 1.6875 C-13.38769775 1.51613525 -12.52539551 1.34477051 -11.63696289 1.16821289 C-7.70389251 0.4103206 -4.02814309 -0.22105663 0 0 Z " fill="#DFE0FB" transform="translate(163,181)"/>
<path d="M0 0 C4.38750292 1.19659171 7.23321262 2.31095016 10 6 C11.74465346 11.63273832 10.11683865 14.91063562 7.5625 19.875 C7.22412109 20.56335938 6.88574219 21.25171875 6.53710938 21.9609375 C5.70547407 23.64763445 4.85463124 25.32483752 4 27 C3.67 26.34 3.34 25.68 3 25 C1.01751285 24.28293018 -0.98415349 23.61709587 -3 23 C-3.66 22.67 -4.32 22.34 -5 22 C-3.82895217 18.87720578 -2.459059 15.98907709 -0.875 13.0625 C0.90653746 9.55240762 1.46329111 6.98430357 1 3 C0.67 2.01 0.34 1.02 0 0 Z " fill="#D42860" transform="translate(237,75)"/>
<path d="M0 0 C9.09752086 4.49739425 18.14016196 9.04449737 27 14 C26.67 15.65 26.34 17.3 26 19 C19.50590644 18.57819149 14.82689902 16.12095872 9.1875 13 C8.32962891 12.5359375 7.47175781 12.071875 6.58789062 11.59375 C5.0093113 10.73925545 3.43309653 9.88036708 1.86010742 9.015625 C0.58608556 8.32000472 -0.70168747 7.64915626 -2 7 C-1.125 2.25 -1.125 2.25 0 0 Z " fill="#FBDB9C" transform="translate(213,86)"/>
<path d="M0 0 C-3.46114658 2.30743106 -5.99450573 2.74182557 -10.07421875 3.5078125 C-10.7580513 3.63815887 -11.44188385 3.76850525 -12.1464386 3.90280151 C-14.32563129 4.31665127 -16.50647364 4.72093718 -18.6875 5.125 C-20.16743658 5.40431881 -21.64725594 5.68425951 -23.12695312 5.96484375 C-26.74997083 6.65044409 -30.37452873 7.32747998 -34 8 C-33.26867264 3.15698769 -31.74908279 1.21349954 -28 -2 C-19.61222466 -4.79592511 -8.52885765 -1.41689087 0 0 Z " fill="#DDDEFA" transform="translate(69,18)"/>
<path d="M0 0 C7.1826087 -0.48695652 7.1826087 -0.48695652 10.9375 1.75 C13.03928669 4.04285821 13.41385929 5.06312654 14 8 C12.23462904 9.17491582 10.46250287 10.33968684 8.6875 11.5 C7.70136719 12.1496875 6.71523437 12.799375 5.69921875 13.46875 C3 15 3 15 0 15 C0 10.05 0 5.1 0 0 Z " fill="#263146" transform="translate(181,167)"/>
<path d="M0 0 C3.95820859 0.56545837 6.6659053 1.80902348 10 4 C7.81228319 8.38290023 5.65451224 10.11595263 1.3125 12.3125 C0.31863281 12.82425781 -0.67523438 13.33601562 -1.69921875 13.86328125 C-2.45847656 14.23839844 -3.21773437 14.61351562 -4 15 C-4.61875 14.21625 -5.2375 13.4325 -5.875 12.625 C-7.89858661 10.03162353 -7.89858661 10.03162353 -10 8 C-9.16855469 7.51080078 -9.16855469 7.51080078 -8.3203125 7.01171875 C-7.23363281 6.35623047 -7.23363281 6.35623047 -6.125 5.6875 C-5.40570313 5.25824219 -4.68640625 4.82898438 -3.9453125 4.38671875 C-1.73153667 2.98247625 -1.73153667 2.98247625 0 0 Z " fill="#FABC29" transform="translate(199,159)"/>
<path d="M0 0 C0.3046875 2.25390625 0.3046875 2.25390625 0 5 C-2.0546875 7.02734375 -2.0546875 7.02734375 -4.875 8.9375 C-5.87273437 9.61683594 -6.87046875 10.29617187 -7.8984375 10.99609375 C-9.43371094 11.98802734 -9.43371094 11.98802734 -11 13 C-11.94101563 13.60972656 -12.88203125 14.21945313 -13.8515625 14.84765625 C-20.5070922 19 -20.5070922 19 -24 19 C-24 17.35 -24 15.7 -24 14 C-22.26556641 13.17242187 -22.26556641 13.17242187 -20.49609375 12.328125 C-16.10378225 10.1324533 -12.10136015 7.5315173 -8.0625 4.75 C-1.1176264 0 -1.1176264 0 0 0 Z " fill="#DCDCF6" transform="translate(205,168)"/>
<path d="M0 0 C3.34373475 0.55728913 6.03312999 1.35173889 9 3 C8.67 4.65 8.34 6.3 8 8 C1.47692308 7.38461538 1.47692308 7.38461538 -0.9375 5.4375 C-1.4634375 4.7259375 -1.4634375 4.7259375 -2 4 C-1.34 2.68 -0.68 1.36 0 0 Z " fill="#F6BA30" transform="translate(231,97)"/>
<path d="M0 0 C1.32 0.33 2.64 0.66 4 1 C2.7508258 4.45925163 1.32472205 7.14693203 -1 10 C-5.75 9.125 -5.75 9.125 -8 8 C-8 7.01 -8 6.02 -8 5 C-7.236875 5.103125 -6.47375 5.20625 -5.6875 5.3125 C-4.800625 5.209375 -3.91375 5.10625 -3 5 C-1.1375562 2.59141286 -1.1375562 2.59141286 0 0 Z " fill="#F4FAF2" transform="translate(75,200)"/>
<path d="M0 0 C0.99 0.33 1.98 0.66 3 1 C1.7508258 4.45925163 0.32472205 7.14693203 -2 10 C-6.75 9.125 -6.75 9.125 -9 8 C-9 7.01 -9 6.02 -9 5 C-8.2575 5.103125 -7.515 5.20625 -6.75 5.3125 C-3.74927133 5.2745414 -3.74927133 5.2745414 -1.6875 2.5 C-1.130625 1.675 -0.57375 0.85 0 0 Z " fill="#F4FAF3" transform="translate(59,118)"/>
<path d="M0 0 C0.99 0 1.98 0 3 0 C2.43454163 3.95820859 1.19097652 6.6659053 -1 10 C-3.97 9.505 -3.97 9.505 -7 9 C-7.33 7.68 -7.66 6.36 -8 5 C-5.525 5.495 -5.525 5.495 -3 6 C-2.690625 5.195625 -2.38125 4.39125 -2.0625 3.5625 C-1 1 -1 1 0 0 Z " fill="#F6FAF4" transform="translate(67,159)"/>
<path d="M0 0 C1.98 0 3.96 0 6 0 C6.25 2.8125 6.25 2.8125 6 6 C4.125 7.875 4.125 7.875 2 9 C1.34 9 0.68 9 0 9 C0 6.03 0 3.06 0 0 Z " fill="#4A5A73" transform="translate(181,167)"/>
</svg>
